<svg width='128px' height='128px' version="1.0" id="Layer_1" xmlns="http://www.w3.org/2000/svg" xmlns:xlink="http://www.w3.org/1999/xlink" x="0px" y="0px" viewBox="0 0 48 48" enable-background="new 0 0 48 48" xml:space="preserve">
<g>
	<path fill="#CFD8DC" d="M12,40V20h32v20c0,2.2-1.8,4-4,4H16C13.8,44,12,42.2,12,40z"></path>
</g>
<path fill="#78909C" d="M44,16v6H12v-6c0-2.2,1.8-4,4-4h24C42.2,12,44,13.8,44,16z"></path>
<g>
	<circle fill="#37474F" cx="37" cy="16" r="3"></circle>
	<circle fill="#37474F" cx="20" cy="16" r="3"></circle>
</g>
<g>
	<path fill="#B0BEC5" d="M37,10c-1.1,0-2,0.9-2,2v4c0,1.1,0.9,2,2,2s2-0.9,2-2v-4C39,10.9,38.1,10,37,10z"></path>
	<path fill="#B0BEC5" d="M20,10c-1.1,0-2,0.9-2,2v4c0,1.1,0.9,2,2,2s2-0.9,2-2v-4C22,10.9,21.1,10,20,10z"></path>
</g>
<g>
	<g>
		<rect x="32" y="34" fill="#90A4AE" width="4" height="4"></rect>
	</g>
	<g>
		<rect x="26" y="34" fill="#90A4AE" width="4" height="4"></rect>
	</g>
	<g>
		<rect x="20" y="34" fill="#90A4AE" width="4" height="4"></rect>
	</g>
	<g>
		<rect x="32" y="28" fill="#90A4AE" width="4" height="4"></rect>
	</g>
	<g>
		<rect x="26" y="28" fill="#90A4AE" width="4" height="4"></rect>
	</g>
	<g>
		<rect x="20" y="28" fill="#90A4AE" width="4" height="4"></rect>
	</g>
</g>
<circle fill="#F44336" cx="16" cy="15" r="12"></circle>
<circle fill="#EEEEEE" cx="16" cy="15" r="9"></circle>
<g>
	<rect x="15" y="8" width="2" height="7"></rect>
	<rect x="16.9" y="14.2" transform="matrix(-0.7071 0.7071 -0.7071 -0.7071 42.5058 16.1923)" width="1.9" height="5.4"></rect>
	<circle cx="16" cy="15" r="1.5"></circle>
</g>
</svg>